# xmcd
# Track frame offsets:
# 150
# 12277
# 26520
# 47151
# 66151
# 92555
# 110775
# 131677
# 158522
# 179334
# 196086
# 214358
# 228660
# 241638
#
# Disc length: 3517 seconds
# Revision: 0
# Processed by: cddbd v1.5.2PL0 Copyright (c) Steve Scherf et al.
# Submitted via: VisiTrax 2.11.2.271 - For more info visit www.synapsa.com
#
DISCID=b90dbb0e
DTITLE=Self. Tanya - Random Truths
DYEAR=2014
DGENRE=Country
TTITLE0=Dressed To Kill
TTITLE1=All U Gotta Do
TTITLE2=Jacaranda. The
TTITLE3=Fallen Angel
TTITLE4=Listening In
TTITLE5=Everything
TTITLE6=Fly Me Home
TTITLE7=You Don't Love Me (When You're Sober )
TTITLE8=I Climbed The Mountain
TTITLE9=Growing Up
TTITLE10=( I Think I've ) Fallen
TTITLE11=Lonely
TTITLE12=Michief ( Your Backside's Gonna Pay )
TTITLE13=One More Time
EXTD=
EXTT0=
EXTT1=
EXTT2=
EXTT3=
EXTT4=
EXTT5=
EXTT6=
EXTT7=
EXTT8=
EXTT9=
EXTT10=
EXTT11=
EXTT12=
EXTT13=
PLAYORDER=
